<?xml version="1.0" standalone="no"?>
<!DOCTYPE svg PUBLIC "-//W3C//DTD SVG 1.1//EN" "http://www.w3.org/Graphics/SVG/1.1/DTD/svg11.dtd" >
<svg xmlns="http://www.w3.org/2000/svg">
<metadata></metadata>
<defs>
<font id="cc_monster_mashmedium" horiz-adv-x="891" >
<font-face units-per-em="2048" ascent="1638" descent="-410" />
<missing-glyph horiz-adv-x="725" />
<glyph horiz-adv-x="2048" />
<glyph horiz-adv-x="2048" />
<glyph unicode="&#xd;" horiz-adv-x="0" />
<glyph unicode=" "  horiz-adv-x="725" />
<glyph unicode="&#x09;" horiz-adv-x="725" />
<glyph unicode="&#xa0;" horiz-adv-x="725" />
<glyph unicode="!" horiz-adv-x="796" d="M-84 -26q24 132 72 252t76 174l40 -38l-12 -114l72 72l22 -23l37 41l11 -68l73 68l-4 -80l63 37q-48 -96 -84 -197q-34 -101 -50 -151l-44 2l-44 -33l-21 78l-35 -41l-22 77l-66 -108l-10 62zM133 608q30 113 81 255.5t114.5 297.5t129.5 290t128 245l96 12l-30 -92 l159 139l-25 -135l80 70l4 -70l101 76l55 28l20 -61q-68 -96 -154 -232t-185.5 -305.5t-184.5 -333.5q-86 -164 -150 -315l-46 -12v84l-37 -39l2 92l-31 -55l-55 -45l33 156l-72 -120z" />
<glyph unicode="&#x22;" horiz-adv-x="790" d="M326 1317l38 323l70 64l68 -70l55 50l31 -54l66 37l-160 -401l-64 72l-64 -76zM622 1278l93 316l100 58l9 -71l94 51l20 -72l78 21l-218 -359l-32 36l-60 -27l-12 67z" />
<glyph unicode="#" horiz-adv-x="1364" d="M-8 430l100 76l-72 64l82 52q22 0 180 9q3 9 30.5 97t29.5 96q-68 -4 -107 -6t-71 -4t-41 -3l23 59l-64 35l116 80l-40 67q32 7 68 9.5t110 5.5t106 6q30 98 71 193.5t63 138.5l52 -25l82 84l15 -124l80 80l33 -44q-70 -148 -119 -286q60 0 168 6q46 128 72.5 200 t40.5 107l46 -2l88 59l40 -102l84 16q-10 -30 -44 -120t-53 -146l166 6l69 -47l-102 -73l74 -64l-82 -54q-52 -4 -198 -10q-30 -110 -44 -192q88 6 143 9t77 5l-23 -60l63 -36l-116 -78l36 -66q-32 -8 -70.5 -11t-107 -6t-102.5 -5q-42 -107 -70 -197l-38 -133l-54 25 l-74 -82l-22 121l-80 -78l-32 43q16 60 49 154q33 95 45 131q-12 0 -72 -2t-108 -4q-32 -94 -52 -155t-32 -99t-17 -54l-47 2l-88 -59l-39 103l-84 -17q11 65 76 266l-143 -8zM570 645q47 4 110 7q64 4 72 4q6 23 16 61.5t22.5 82.5t14.5 52q-160 -8 -170 -8 q-8 -24 -35 -107q-26 -83 -30 -92z" />
<glyph unicode="$" horiz-adv-x="950" d="M-74 404l72 26l-16 62l55 8l-9 80l72 -19l19 80q186 -166 260 -166q35 0 59 35q18 28 18 58q0 48 -46 108t-150 152q-82 70 -82 196q0 69 25.5 139.5t68 124t90.5 76.5q90 42 178 58q62 145 120 237l42 27l17 -78l105 139l36 -111q98 82 125 103l29 -43 q-60 -120 -142 -314q34 -2 66 -22t92 -62l-53 -32l8 -78l-63 -10l8 -88l-64 -8l8 -56q-106 78 -210 78q-36 0 -56 -10q-54 -26 -53 -76q0 -62 92 -136q80 -66 124 -159t44 -187q-1 -70 -21 -124q-28 -74 -88 -133.5t-134 -93t-142 -33.5q-62 -174 -90 -271l-64 -16l-12 77 l-82 -65l-6 119l-70 -88l-53 70q9 39 39 121.5t43 126.5q-129 78 -209 178z" />
<glyph unicode="%" horiz-adv-x="1861" d="M131 1112q0 88 33 178q59 158 143.5 255.5t179.5 138t197 40.5l-20 -44l55 -21q8 4 23.5 15.5t27.5 25.5q80 -30 216 -54q134 -24 224 -24q74 0 239 23t245 49l6 -72l84 -2l-37 -56l57 -20q-110 -100 -294 -303t-382 -437.5t-379.5 -467t-285.5 -385.5l-49 -11l8 78 l-125 -84l19 96l-74 -30l-54 -16l-4 59q54 88 174 250.5t272 357.5t329 409t315 368q-21 -2 -73.5 -13.5t-80.5 -11.5q-119 0 -176 4q-6 -84 -36 -180q-39 -123 -104.5 -222.5t-161.5 -159t-216 -59.5q-28 0 -45 2q-112 11 -181 102.5t-69 221.5zM418 1138q0 -65 41 -73 q113 0 169 172q34 106 34 164q0 61 -34 65q-42 0 -86 -43t-79 -117q-45 -92 -45 -168zM926 196q0 88 32 179q60 160 143 256.5t178 137t197 40.5l-20 -45l33 -20l-45 -40l104 -46v65l46 -6l8 59q50 -22 89 -101t39 -187q0 -88 -28 -176q-40 -122 -105.5 -223.5 t-160.5 -160.5q-96 -59 -216 -59q-30 0 -46 2q-112 11 -180 103t-68 222zM1212 226q0 -68 42 -76q112 0 168 172q32 104 32 164q0 62 -32 65q-43 0 -87.5 -43.5t-78.5 -116.5q-44 -95 -44 -165z" />
<glyph unicode="&#x26;" horiz-adv-x="1231" d="M-14 342q0 92 38 186q61 146 141.5 251t223.5 192q-77 108 -77 190q0 109 116 254q66 86 153 141.5t182 82t195 26.5q210 -1 371 -103v-34l-69 -14l30 -58l-66 -24l52 -72l-136 4l9 -88q-134 64 -205 64q-66 0 -131 -40q-119 -70 -119 -141q0 -35 23 -71q20 -32 121 -56 t231 -24l-25 -88h82l-12 -56h92q-54 -110 -109 -236t-113.5 -277t-114 -317t-103.5 -341l-64 -17l-8 86l-45 -42l-10 94l-35 -62l-49 -53l-15 115l-71 -86l-47 78q4 20 30 88q28 68 34 92q-112 -22 -172 -23q-42 1 -68 7q-69 14 -129.5 67t-95.5 133.5t-35 171.5zM370 416 q0 -110 134 -111q30 4 63 23.5t35 19.5q68 189 156 379q-204 -1 -348 -199q-40 -52 -40 -112z" />
<glyph unicode="'" horiz-adv-x="522" d="M156 1184q121 142 172.5 262t60.5 172l41 -8l52 24l8 -82l40 37l8 -81l109 112v-64l93 27q-60 -189 -152 -325q-92 -135 -140 -187l-34 43l34 121l-86 -69l-16 26l-43 -35v70l-84 -78l-4 43z" />
<glyph unicode="(" horiz-adv-x="780" d="M30 461q0 8 1.5 20.5t1.5 22.5q10 126 32 246t61 242t102.5 247t148.5 235q51 68 154 151t188 107l-2 -50l94 -11l-41 -53l76 -10l-62 -62l148 10l-82 -69l55 -33l-67 -30q-64 -29 -145 -116.5t-132 -183.5q-60 -114 -112.5 -273t-55.5 -267q0 -98 21 -218t55 -174l6 -61 l-79 2l69 -161l-93 24l5 -58l-135 52l47 -140l-66 6q-65 58 -108 165.5t-64 227t-21 212.5z" />
<glyph unicode=")" horiz-adv-x="835" d="M-144 -20l200 76l-122 36l78 62l-74 28l27 37q65 16 109 56.5t106 134.5q77 114 124.5 255t99.5 343q16 60 16 156q0 168 -45 228q-26 34 -30.5 39.5t-20.5 18t-52 43.5l113 6l-10 53l96 -20l-43 90l56 2l-30 94l62 8q67 -11 84 -24q67 -52 108.5 -146t57.5 -197.5 t16 -203.5q-2 -149 -47 -336t-100 -309q-47 -108 -137 -249t-136 -183q-82 -74 -146 -114t-124 -57.5t-152 -29.5l-26 23l60 38z" />
<glyph unicode="*" horiz-adv-x="786" d="M121 1112l77 64l-18 44l186 90l-112 160l55 44v84l101 -92l18 75l88 -105q21 48 39.5 88t26.5 54l63 16l-4 -49l88 70l-4 -97h55q-38 -54 -76 -138l156 50l58 -20l-40 -51l88 -13l-54 -59l18 -45l-240 -76l111 -166l-45 -26l8 -100l-92 61l-18 -49l-103 128 q-33 -98 -63 -165l-42 -21l-18 60l-82 -58l14 103l-44 -11q22 76 38 124l-104 -54l-60 20l42 52z" />
<glyph unicode="+" horiz-adv-x="1124" d="M142 628l106 82l-90 9l16 41l74 30l-41 50q96 22 262 30q26 89 71 200q44 110 68 163l41 -19l47 52l8 -72l50 35l8 -72l78 103l10 -62l78 10q-58 -118 -127 -321q60 1 106.5 1.5t59.5 0.5h22l63 -43l-92 -58l99 -24l8 -43l-107 -33l66 -57l-74 -49q-38 -1 -115 -4.5 t-114 -3.5q-40 -96 -74 -202t-49 -157l-43 2l-45 -35l-20 80l-36 -43l-22 80l-66 -109l-10 62l-74 -10q21 113 93 313q-85 -4 -132 -7.5t-67 -5.5l20 54z" />
<glyph unicode="," horiz-adv-x="594" d="M-88 -104q121 142 172.5 262t61.5 172l40 -8l52 24l6 -70l42 25l9 -82l109 113v-64l92 27q-60 -192 -151 -326t-140 -186l-25 59l25 105l-86 -70l-17 27l-42 -35v69l-97 -96l2 58z" />
<glyph unicode="-" d="M142 628l106 82l-90 9l16 41l74 30l-41 50q195 40 545 40l63 -42l-92 -58l98 -24l9 -44l-107 -32l65 -58l-73 -48q-152 -5 -272.5 -12t-183.5 -12.5t-81 -7.5l20 54z" />
<glyph unicode="." horiz-adv-x="489" d="M-70 -26q24 132 72.5 252t75.5 174l41 -38l-13 -114l72 72l22 -23l38 41l10 -68l74 68l-4 -80l63 37q-46 -91 -82.5 -194.5t-52.5 -153.5l-43 2l-45 -33l-21 78l-35 -41l-22 77l-66 -108l-10 62z" />
<glyph unicode="/" horiz-adv-x="1009" d="M-168 -60q60 120 205 360t339 536.5t378 550t313 395.5h65l-12 -70l54 14l-15 -94l49 50l80 32l-26 -94l74 45l34 -80q-96 -104 -255 -321.5t-332 -475.5t-336 -520t-251 -420l-48 -14l2 78l-117 -94l10 96l-80 -33l11 70l-80 -47l-54 -23z" />
<glyph unicode="0" horiz-adv-x="1216" d="M14 352q0 64 16 150q35 172 90 341.5t144 337t213 304.5q53 58 139.5 109.5t155.5 51.5l-39 -44l109 -27l-39 -57l84 -2l71 -27l-16 69l76 6l-58 54l68 32q33 -5 74 -20q190 -70 190 -342q0 -69 -10 -141q-22 -152 -84 -350.5t-121 -314.5q-44 -84 -122.5 -201 t-122.5 -152q-208 -170 -390 -170q-100 0 -235 49q-104 38 -148.5 132t-44.5 212zM391 469q-1 -90 51 -125q34 -10 54 -10q46 0 84 35t92 113q56 76 104.5 203.5t128.5 360.5q23 66 23 118q0 90 -62 130q-20 8 -45 8q-58 0 -112.5 -52t-96.5 -136q-61 -122 -129.5 -287 t-78.5 -233q-12 -74 -13 -125z" />
<glyph unicode="1" horiz-adv-x="696" d="M-39 72q34 152 112 380t165.5 442t142.5 316l-80 19l25 49l-105 -6l80 92l-55 30q44 34 109 73t143 79t152.5 75t121.5 55l6 -114l76 58l18 -51l56 18q-48 -98 -138 -309.5t-183 -450t-173 -466t-129 -402.5l-63 -17l-8 86l-38 -20l-18 72l-34 -60l-50 -38l2 149 l-92 -123z" />
<glyph unicode="2" horiz-adv-x="1026" d="M-102 125q19 16 81.5 81t200.5 229.5t328 414.5q86 113 124 172t70 137q10 27 10 47q0 42 -34 67t-90 25q-104 0 -218 -78l15 70l-111 -30l27 86l-57 16l42 66l-75 30q109 93 237 146t246 53q92 0 164 -33q106 -46 173 -138t67 -206q0 -86 -41 -170q-62 -128 -136.5 -243 t-172.5 -239t-271 -331q45 -4 99 -4q104 0 208 12l-30 -43l20 -16l-34 -43l79 -11l-71 -71l-19 -29l135 -26l-53 -62q-164 -30 -385 -30q-138 0 -250 8t-160 14l8 66l-92 -21l27 75z" />
<glyph unicode="3" horiz-adv-x="1032" d="M-146 22l66 27l-41 51l61 37l-63 61l133 19l-22 86q76 -21 158 -21q140 0 258 60q61 30 93.5 80t32.5 108q0 74 -53 134q-28 32 -176 102l61 39l-22 59l78 25l-58 63q108 30 212 84q105 52 143 102q37 46 37 95q0 44 -37 73.5t-107 29.5q-66 0 -96 -12t-84 -50l-125 -6 l57 74l-53 42l45 46l-72 44l54 50l-43 47q153 109 405 109q93 0 195 -21q100 -22 161.5 -107.5t61.5 -207.5q0 -110 -47 -218q-49 -119 -103.5 -183t-142.5 -128q72 -102 72 -254q0 -192 -121 -348q-112 -141 -254.5 -202.5t-314.5 -61.5q-135 0 -343 41z" />
<glyph unicode="4" horiz-adv-x="1233" d="M53 744q22 60 77.5 183t113.5 244t119 239q61 120 106 196l33 -66l96 102l2 -170l86 107l24 -63l101 42q-114 -201 -191.5 -347t-123.5 -271q110 18 256 28q130 368 235 592l23 -46l63 59l23 -49l92 126l22 -118l46 68l28 -46l94 62q-23 -47 -55.5 -121.5t-68 -161.5 t-66.5 -169t-74 -202l96 11l-30 -61l61 -54l-117 -43l50 -35l-50 -36l80 -56l-196 -34q-147 -434 -207 -695l-35 94l-41 -77l-19 30l-46 -30l-27 52l-43 -32l-14 92l-82 -106l-46 36q33 143 64.5 239.5t72 206.5t60.5 177q-50 -4 -159.5 -16.5t-198.5 -23.5t-131 -15l18 84 l-66 -16l19 71z" />
<glyph unicode="5" horiz-adv-x="940" d="M-135 72l82 8l-19 70l48 12l-29 72l127 -27l-37 86l63 8l-18 43q64 -35 133 -35q70 0 129 36.5t93 95t34 124.5q1 96 -73 170q-29 29 -78 49t-97 25l43 55l-49 20l31 56h-76q82 184 115 254.5t77 138.5l62 35l-80 16l8 44l-45 42l145 36l-73 34l-17 60q194 40 514 40 q73 0 125.5 -1t73.5 -3l-27 -51l32 -23l-54 -36l104 -39l-84 -45l46 -56l-35 -42q-111 0 -204 -14t-134 -24q-20 -50 -129 -292q26 -16 51 -30t51 -34q28 -20 52 -47q46 -50 72 -130t26 -173q0 -132 -55 -262t-165 -232q-91 -83 -201.5 -124.5t-224.5 -41.5q-176 0 -304 88z " />
<glyph unicode="6" horiz-adv-x="1114" d="M-10 404q0 80 8 126q18 116 48 229t77 226.5t115 230.5q70 116 158 224q48 60 136 120t178 86q82 24 158 25q258 0 392 -254l-60 -8l14 -63l-96 30v-47l-114 45l55 -145l-80 10l-35 -51q-36 54 -64 80q-27 26 -63 28q-77 0 -132 -45.5t-117 -146.5q-18 -26 -44 -72 q59 10 107 10q122 0 219.5 -52t145.5 -150q36 -70 36 -180q0 -90 -27 -189.5t-72 -185t-99 -139.5q-186 -188 -424 -189q-106 0 -220 41q-76 26 -120.5 91t-62 145t-17.5 170zM344 514q0 -80 46 -137t110 -57q84 0 147 104q53 86 53 168q0 137 -190 137l22 47l-57 4l-23 50 q-66 -94 -102 -262q-6 -28 -6 -54z" />
<glyph unicode="7" horiz-adv-x="1063" d="M-116 121q10 16 53 76.5t96.5 134.5t179 242.5t279.5 367.5q102 134 256 371q-7 0 -27.5 1t-54.5 1q-135 -1 -291 -23l63 74l-68 20l23 44l-59 42l145 36l-71 34l-19 60q293 44 633 44h88q34 -2 47 -2l-27 -50l72 -7l-26 -59l82 -25q-98 -183 -230.5 -393t-287 -432 t-297.5 -408t-259 -315l-6 57l-116 -70l18 80l-76 -14l-2 72l-94 -41l26 75z" />
<glyph unicode="8" horiz-adv-x="1220" d="M4 434q0 89 26 164q26 76 81 146t121 123t120 77q-44 104 -43 188q1 54 19 130q30 116 90 207t154 144.5t218 53.5l-38 -45l108 -26l-47 -54l92 -6l78 -18l-23 61h80l-61 59l45 42q73 -10 130.5 -59t89.5 -127t32 -171q0 -89 -29 -176q-40 -120 -88 -184 q-48 -63 -131 -127q110 -136 110 -312q0 -162 -106 -290q-120 -146 -239 -209.5t-265 -63.5q-104 0 -266 37q-112 27 -185 154.5t-73 281.5zM354 446q0 -78 46 -128q36 -46 106 -46q97 0 172 84q64 72 64 146q0 72 -66 166q-92 0 -142 22q-180 -96 -180 -244zM631 1157 q-1 -157 67 -163q78 0 132 50t82 120q10 22 10 56q0 53 -30 89.5t-79 36.5q-62 0 -117 -63t-65 -126z" />
<glyph unicode="9" horiz-adv-x="1089" d="M-22 60l61 36l-55 56l67 24l-49 80l80 -6v49l68 -2l-2 61q33 -14 86 -30q52 -14 78 -16q144 0 278 198q18 28 28 47q-58 -4 -82 -4q-181 0 -288 82.5t-123 232.5q-4 60 -4 94q0 140 53.5 274.5t187.5 262.5q183 172 416 172q64 0 119 -8q64 -9 114.5 -42.5t87.5 -90 t56 -130.5t19 -167q0 -62 -4 -95q-18 -166 -75.5 -355.5t-159 -369t-239.5 -297.5q-91 -78 -198.5 -115.5t-215.5 -37.5q-186 1 -304 97zM475 1026q3 -62 63 -94q58 -31 156 -31q-5 -18 -20.5 -30.5t-24.5 -16.5l49 -16l4 -33q8 3 21 9t15 10q16 34 28.5 73.5t19 71t10 56 t5.5 40.5q8 61 8 86q0 82 -28.5 129t-82.5 47q-31 -1 -67 -19q-76 -36 -116 -116t-40 -166z" />
<glyph unicode=":" horiz-adv-x="532" d="M-70 -26q24 132 72.5 252t75.5 174l41 -38l-13 -114l72 72l22 -23l38 41l10 -68l74 68l-4 -80l63 37q-46 -91 -82.5 -194.5t-52.5 -153.5l-43 2l-45 -33l-21 78l-35 -41l-22 77l-66 -108l-10 62zM174 727q20 88 65 191.5t70 154.5l41 -19l48 52l8 -72l48 35l9 -71l77 102 l11 -62l77 10q-62 -128 -99 -234t-50 -150l-43 -4l-4 78l-55 -36l-21 23l-36 -41l-13 68l-73 -68l-8 60z" />
<glyph unicode=";" horiz-adv-x="602" d="M-88 -104q121 142 172.5 262t61.5 172l40 -8l52 24l8 -70l40 25l9 -82l109 113l14 -62l78 25q-60 -192 -151 -326t-140 -186l-21 55l21 109l-86 -70l-17 27l-42 -35v69l-97 -96l4 64zM230 727q21 90 65 193q43 102 69 153l42 -19l46 52l11 -72l47 35l10 -71l76 102 l10 -62l78 10q-62 -128 -99 -234t-51 -150l-42 -4l-10 78l-50 -36l-20 23l-37 -41l-13 68l-73 -68l-9 60z" />
<glyph unicode="&#x3c;" horiz-adv-x="966" d="M-8 901q72 82 189 204t263.5 268.5t257.5 254.5q110 110 148 144l49 4l-21 -72l154 76l-22 -82l47 14l-21 -66l111 48l69 18l-4 -55q-90 -68 -234.5 -201.5t-307.5 -293.5q-164 -158 -328 -324q6 -23 28 -96t57.5 -180.5t92.5 -266.5t127 -334l-61 -4l-60 61l-8 -112 l-18 -41l-72 92l-4 -78l-60 31l-36 -56q-165 442 -330 890l51 38l-45 37l45 33q-8 8 -25.5 24t-31.5 25z" />
<glyph unicode="=" horiz-adv-x="1065" d="M60 467l106 82l-90 8l16 41l74 30l-41 50q96 20 248.5 31t271.5 14.5t170 3.5l63 -43l-92 -58l98 -24l9 -43l-107 -33l66 -57l-74 -49q-214 -7 -408 -20q-196 -12 -274 -19l20 53zM162 1012l106 32l-65 58l73 49q293 41 582 41q40 0 66 -1t34 -1l-20 -54l58 -32l-107 -82 l90 -8l-17 -41l-73 -31l41 -49q-181 -2 -385 -19q-203 -18 -305 -30l-64 43l92 57l-98 24z" />
<glyph unicode="&#x3e;" horiz-adv-x="983" d="M-64 -78q98 148 175 265t157.5 234t165 230t174.5 223q-16 64 -45.5 155t-72.5 217t-67 202q-24 78 -42 160l25 32l96 -126l6 100l32 -4l9 53l53 -45l-10 135l60 -49l42 58q31 -138 125.5 -421.5t151.5 -445.5l-70 -57l33 -44l-64 -20l38 -49q-50 -59 -163 -200 t-259 -345q-147 -204 -238 -376l-27 26l-65 -22l22 86l-36 -15l6 74l-140 -90l2 51z" />
<glyph unicode="?" horiz-adv-x="1046" d="M51 20q28 134 78.5 256t77.5 174l41 -36l-4 -107l63 63l21 -22l36 41l13 -67l77 108l-4 -80l64 37q-56 -108 -91.5 -221.5t-47.5 -167.5l-43 2l-46 -33l-22 78l-34 -41l-21 78l-61 -82l-11 62zM217 852l90 74q358 86 426 305q7 20 7 41q0 45 -36 71.5t-98 26.5 q-110 0 -223 -80l15 70l-112 -31l28 86l-58 17l43 65l-76 31q108 92 236.5 145t246.5 53q92 0 164 -32q69 -31 123.5 -89t83.5 -130.5t29 -149.5q0 -60 -22 -129q-70 -189 -244 -361.5t-478 -246.5l29 68h-141l98 98l-86 12l60 43z" />
<glyph unicode="@" horiz-adv-x="1685" d="M53 514q0 118 23.5 244t72.5 252.5t119 233t160 180.5q80 67 167 114.5t166.5 72.5t155.5 35.5t156 10.5q69 -1 197 -13q116 -12 216 -100t159 -215.5t59 -246.5q-4 -137 -55 -297.5t-144 -306.5t-218 -235t-271 -89q-52 0 -86 14t-56 60q-6 0 -6 18q0 10 2 21t2 15 q-44 -32 -100.5 -59t-97.5 -27q-124 5 -185 86.5t-61 221.5q0 130 49 284q44 141 117.5 247t160.5 166.5t175 72.5q36 6 92 6q145 0 207 -62l-57 -73h50l15 -55l63 10q-30 -107 -60.5 -210.5t-57.5 -197.5t-64 -227l18 -13q52 0 106 69t99 169t73 198.5t28 143.5 q-3 100 -41.5 179t-108.5 129q-72 50 -168 65q-37 4 -63 4q-72 0 -152.5 -18.5t-164 -59.5t-152.5 -102q-68 -59 -132 -173t-105 -257t-41 -281q8 -151 76 -276t226 -150l44 -68l-78 9l18 -70l-78 -6l60 -53l-70 -35q-18 4 -47.5 10t-64.5 18q-34 11 -64 31 q-260 164 -280 524q-2 20 -3 62zM696 594q0 -119 54 -119q70 -1 112 51q28 98 48.5 173t43 143.5t48.5 136.5q-47 0 -71 2.5t-30 3.5q-52 0 -106 -77q-55 -78 -83 -183q-16 -60 -16 -131z" />
<glyph unicode="A" horiz-adv-x="1167" d="M-186 4q76 180 190.5 403t253 457.5t276.5 439t256 346.5l36 -30l26 -98l94 112l22 -94l64 60l16 -62l70 84l43 -30q-4 -46 -29.5 -315t-41.5 -458t-29 -409t-15 -398l-55 -32l-33 82l-30 -52l-35 88l-19 -65l-53 -72l-29 119l-36 -94l-70 53q0 156 2 252q-18 2 -53 2 q-32 0 -62.5 -3.5t-67 -9t-84 -12t-109.5 -12.5q-4 0 -118 -217h-44l-56 -35l-8 78l-45 -43l-11 77l-116 -128v59zM490 576q35 2 97.5 12t120.5 10q24 260 76 475h-4q-46 -62 -86.5 -126.5t-63 -107t-68.5 -130t-72 -133.5z" />
<glyph unicode="B" horiz-adv-x="1183" d="M-80 150q116 380 205 624t135 350q48 106 64 136l61 30l-71 27l63 67l-29 36l146 42l-72 52l53 42l-45 52q213 61 419 61h7q68 0 150 -10q72 -9 129 -58t90 -127q33 -80 33 -174q0 -92 -29 -174q-40 -119 -88.5 -183.5t-130.5 -127.5q48 -58 79 -141t31 -170 q0 -162 -106 -291q-120 -146 -274 -205t-351 -59q-107 0 -281 18l-10 35l64 26l-46 52l72 34l-59 68l-45 -51l-28 95l-72 -130zM348 301q28 0 69 -2t54 -2q76 0 164 45q98 52 98 146q1 82 -75 159q-27 -12 -86.5 -30.5t-115.5 -20.5q-30 -66 -61.5 -157.5t-46.5 -137.5z M598 948q94 0 157 53.5t119 136.5q34 50 34 97q0 39 -25 63.5t-74 24.5q-10 0 -39 -4q-16 -26 -61 -117t-111 -254z" />
<glyph unicode="C" horiz-adv-x="997" d="M20 383q0 61 6 109q14 119 36.5 218.5t66 212t113.5 237.5q72 124 174 260q47 62 147.5 131t188.5 95q82 24 158 25q256 0 390 -254l-59 -8l15 -63l-84 16l-11 -62l-100 50l49 -119l-90 8l-35 -51q-36 54 -63 80q-28 26 -64 28q-76 0 -124 -38t-114 -130 q-45 -64 -96.5 -172.5t-89 -215t-43.5 -172.5q-2 -18 -2 -52q0 -94 34.5 -149t94.5 -55q76 0 178 92l-14 -46l56 14l-32 -88l113 68l-25 -96l44 10l-14 -66l71 21q5 1 -41 -77q-230 -186 -422 -187q-94 0 -209 41q-203 73 -203 385z" />
<glyph unicode="D" horiz-adv-x="1202" d="M-78 207q89 278 179 515.5t148 372.5q59 135 81 183l63 43l-71 27l63 69l-29 33l146 45l-72 51l54 43l-46 51q222 38 416 38q104 0 207 -13q229 -32 229 -391q0 -41 -8 -136q-16 -160 -74 -352.5t-160 -372t-239 -297.5q-182 -155 -398 -155h-3h-4q-141 0 -316 63l45 42 l-53 32l49 64l-92 -2l8 59l-82 -51zM366 377q48 -45 82 -47q80 0 136 43t118 137q72 106 132 268t80 287q8 55 8 109q0 162 -117 162q-10 0 -41 -5q-76 -123 -260 -587q-38 -97 -138 -367z" />
<glyph unicode="E" horiz-adv-x="901" d="M-92 68q41 150 105.5 332.5t138.5 363t146.5 332.5t121.5 229l64 35l-82 16l10 44l-46 42l144 35l-72 35l-18 60q104 22 221 33t217 14t184 3h66l-26 -50l30 -23l-39 -39l91 -37l-82 -31l34 -53l-26 -59q-110 0 -190 -16t-114 -26q-23 -56 -69.5 -150t-71.5 -150 q26 -2 81.5 -6t109.5 -6l44 -36l-52 -42l102 -42l-132 -36l64 -44l-49 -26l59 -43l-44 -51l-340 -22q-96 -222 -150 -374q14 -4 72 -4q61 0 134.5 5t111.5 8l-34 -39l25 -27l-55 -37l100 -10l-22 -39l-70 -61l119 -20l-53 -62q-156 -47 -384 -47q-168 0 -306 20q4 20 12 43 t12 35q-13 6 -39.5 14.5t-52.5 8.5z" />
<glyph unicode="F" horiz-adv-x="878" d="M-82 78q38 174 127 423t188 475t169 343l63 35l-82 16l10 43l-45 43l144 35l-72 35l-20 57q247 49 618 49q53 0 77.5 -1t34.5 -1l-26 -51l30 -19l-59 -42l93 -38l-60 -36l30 -48l-26 -58q-110 0 -208 -16t-142 -26q-36 -86 -138 -311q18 0 191 -12l45 -35l-39 -33l87 -37 l-128 -51l64 -43l-48 -26l56 -42l-45 -52l-338 -23q-82 -185 -131.5 -318t-83.5 -335l-62 -44l-8 86l-42 -38l-11 78l-86 -80l2 145l-80 -129z" />
<glyph unicode="G" horiz-adv-x="1151" d="M-22 375q0 47 8 117q18 113 53.5 234.5t91 250t130.5 256t163 233.5q102 124 286 180q82 24 158 25q258 0 392 -254l-60 -8l14 -63l-96 30l-2 -63l-98 41l51 -123l-90 8l-35 -51q-36 54 -64 80q-27 26 -63 28q-77 0 -132 -45.5t-117 -146.5q-58 -94 -130 -273t-88 -263 q-6 -34 -6 -66q0 -84 40 -137t100 -53q86 0 168 100q20 24 38 54t35.5 62t44.5 80q-80 0 -129 6l-45 35l56 43l-116 37l142 41l-64 43l52 31l-60 38l46 52l428 20l-17 -88h67l-40 -70h80l30 -18l-90 -219q-32 -79 -66 -145t-87 -137t-125 -135q-208 -186 -424 -187 q-108 0 -226 43q-112 41 -158 145t-46 232z" />
<glyph unicode="H" horiz-adv-x="1177" d="M-123 -10q38 148 107 361.5t158.5 456t177.5 446.5t159 325l33 -65l137 141l3 -181l81 103l25 -63l100 88l8 -21q-53 -92 -103.5 -205.5t-88.5 -213.5t-90 -238q10 2 102.5 21t161.5 23q130 368 236 592l22 -46l64 59l6 -67l108 144l18 -106l50 56l30 -46l90 78l2 -16 q-55 -110 -134.5 -309t-164 -440t-156 -475t-111.5 -410l-32 48l-44 -32l-8 80l-62 -66l-22 37l-46 -37l-12 98l-82 -94l-45 25q26 114 51 198.5t51 157t47.5 132t37.5 112.5q-80 -6 -283 -43q-150 -396 -199 -592l-39 -24l-16 94l-55 -76l-38 47l-59 -55l-10 110l-76 -122 l-23 44z" />
<glyph unicode="I" horiz-adv-x="641" d="M-76 72q36 159 144 472.5t228 607.5t198 423l42 27l19 -60l103 121l6 -121l57 54l10 -84l86 108l45 35l29 -43q-66 -138 -192.5 -449.5t-245.5 -639.5t-185 -564l-63 -17l-9 86l-44 -42l-4 94l-42 -60l-53 -46l7 157l-93 -115z" />
<glyph unicode="J" horiz-adv-x="956" d="M-158 70l82 10l-18 68l55 -8l-37 112l127 -26l-37 86l64 8l-18 42q75 -38 147 -38q68 0 121 30q52 30 76 84q54 122 105 257t133 358t126 338t96 229l74 43l10 -135l100 154l21 -74l2 -60l65 74l13 -49l67 67l48 -32q-71 -155 -144.5 -327t-139.5 -336t-123 -312.5 t-97 -257.5q-29 -82 -73.5 -165.5t-84.5 -129.5q-66 -74 -169 -111t-218 -37q-205 0 -344 94z" />
<glyph unicode="K" horiz-adv-x="1163" d="M-76 -20q38 180 109 411t162 475t179.5 450t170.5 366l57 4l-12 -126l66 58l18 -35l38 41l28 -66l84 105l16 -61l47 20q-52 -100 -81.5 -163.5t-59.5 -136t-40 -93.5q240 235 447 415l57 4l-24 -63l150 78l-44 -105l68 27l-4 -51l94 32l56 15l10 -51q-336 -255 -760 -678 q15 -36 52 -131t100.5 -275.5t129.5 -396.5l-67 -2l-53 59l2 -104l-29 -49l-59 61l-17 -47l-57 59l-31 -79l-266 661q-23 -46 -78.5 -198t-126.5 -428l-41 2l-45 -35l-18 77l-36 -36l-18 88l-82 -123l-22 65z" />
<glyph unicode="L" horiz-adv-x="819" d="M-116 51q46 157 134 389.5t187 465t190 423.5t141 271l54 24l6 -78l102 138v-105l54 43l8 -70l82 84l47 33l29 -43q-92 -178 -273 -605.5t-303 -766.5q184 0 284 10l-56 -49l54 -17l-42 -36l98 -16l-43 -40l-37 -48l76 -15l-54 -69q-164 -48 -401 -48q-117 0 -249 12 q4 28 9.5 54t8.5 41q-16 3 -54 9q-38 7 -52 9z" />
<glyph unicode="M" horiz-adv-x="1569" d="M-146 -10q40 146 113.5 352t170 449t185.5 448t156 336l39 -61l96 143l23 -231l84 151l33 -49l70 88l-28 -786q187 233 333.5 395t223.5 237.5t103 97.5l6 -54l80 67l22 -49l78 122l8 -92l62 54l29 -42l84 44q-45 -86 -120 -287.5t-160 -451t-184 -551.5t-111 -338 l-32 40l-50 -65l-9 103l-51 -62l-26 51l-34 -29l-2 90l-88 -114l-28 37q30 242 92 421.5t96 249.5h-2q-131 -152 -235.5 -281t-162.5 -208t-100 -137.5t-53 -75.5l-37 -12q-34 275 -34 657v57h-4q-80 -170 -143 -329t-92 -248t-38 -121l-43 -22l-10 92l-62 -90l-18 30 l-49 -42l-13 128l-84 -128l-30 42z" />
<glyph unicode="N" horiz-adv-x="1196" d="M-162 -10q50 200 158 517t230 617t212 455l33 -65l119 141l10 -195l72 117l30 -47l70 86l62 -811l4 2q50 172 112 350.5t104 285.5t60 149l35 -36l51 48l8 -68l94 123l17 -70l43 41l8 -70l108 62q-42 -84 -117 -295t-157.5 -462.5t-181 -560t-102.5 -322.5l-36 94 l-28 -48l-28 32l-50 -62l-26 51l-35 -41l-25 104l-36 -79l-58 -27q-30 161 -49.5 356.5t-27 321.5t-9.5 180l-8 -2q-156 -388 -224 -592t-82 -264l-38 -24l-14 94l-52 -94l-26 34l-50 -42l-20 102l-76 -102l-16 50z" />
<glyph unicode="O" horiz-adv-x="1216" d="M18 372q0 70 17 154q35 172 88.5 335t142 325.5t211.5 298.5q49 56 126 99.5t169 61.5l-14 -46l84 -25l-46 -59h91l71 -10l-16 52h80l-62 60l68 32q33 -5 74 -20q190 -70 190 -342q0 -69 -10 -141q-22 -152 -84 -350.5t-121 -314.5q-44 -84 -122.5 -201t-122.5 -152 q-207 -170 -404 -170q-106 0 -221 49q-102 44 -145.5 144t-43.5 220zM391 467q0 -93 51 -123q28 -14 52 -14q74 0 178 152q56 76 104.5 203.5t128.5 360.5q23 66 23 118q0 90 -62 130q-20 8 -45 8q-58 0 -112.5 -52t-96.5 -136q-61 -122 -129.5 -287t-78.5 -233 q-13 -102 -13 -127z" />
<glyph unicode="P" horiz-adv-x="1177" d="M-96 60q70 232 147 449t144.5 385t110 265t58.5 131l64 43l-72 27l64 70l-27 32l143 44l-71 52l53 44l-45 50q74 5 185.5 15t178.5 14.5t121 4.5q82 0 148 -8q70 -10 123 -56t83 -119t30 -161q0 -98 -38 -206q-50 -136 -111 -221t-143 -141q-82 -54 -214 -110 q-36 -16 -134 -39t-237 -23q-79 -170 -144 -361t-91 -284l-46 -27l-18 113l-62 -73l-12 132l-45 -44l-19 88l-96 -126zM618 981q114 0 172 34.5t118 145.5q36 68 36 119q0 78 -96 78q-28 0 -58 -6q-16 -26 -61 -118.5t-111 -252.5z" />
<glyph unicode="Q" horiz-adv-x="1249" d="M-8 360q0 76 12 166q26 164 71 311t130.5 306t222.5 340q44 56 142 109q100 54 172 58l-19 -44l88 -27l-57 -57l102 -4l78 -19l-22 61h79l-63 62l70 33q57 -15 73 -21q199 -70 199 -342q0 -40 -8 -126q-22 -174 -76.5 -357t-126.5 -303q-7 -20 -25.5 -51t-46 -72 t-45.5 -69q116 -219 196 -359l-65 -11l-65 48l8 -96l-4 -60l-90 78l-10 -64l-46 36l-4 -66l-154 244q-162 -106 -310 -107q-97 0 -224 45q-182 66 -182 358zM360 473q0 -90 52 -125q34 -12 59 -12q27 0 57 16q-6 9 -30 55t-56 101l21 72l90 -60l-21 90l27 2l-12 56l67 -23 l-59 121l71 -16l19 67q28 -40 82 -129q82 179 147 360q23 69 23 121q0 90 -61 129q-20 8 -44 8q-116 0 -212 -188q-28 -56 -64 -135t-64.5 -150t-51 -135t-28.5 -100q-12 -70 -12 -125z" />
<glyph unicode="R" horiz-adv-x="1155" d="M-110 76q76 266 173 534t164 430t97 228l61 40l-71 28l61 65l-25 35l140 40l-70 50l51 43l-43 49q202 53 387 53q123 -1 239 -27q102 -22 166 -112t64 -219q0 -91 -37 -195q-48 -132 -107 -213.5t-139.5 -136t-208.5 -108.5q22 -128 55 -256t70 -239.5t77 -207.5l-44 -57 l-88 108l-34 -68l-50 68l-20 -64l-106 144l-9 -84l-61 20q-56 159 -94 277.5t-54 175.5t-20 74q-58 -144 -104.5 -270.5t-71.5 -202.5q-24 -74 -33 -102l-45 -25l-16 109l-48 -40l-22 86l-52 -40l-16 84l-84 -130zM582 968q190 0 280 177q37 71 37 115q0 73 -92 73h-2 q-25 0 -57 -6q-16 -25 -59 -113t-107 -246z" />
<glyph unicode="S" horiz-adv-x="846" d="M-172 72l82 8l-18 70l42 12l-24 90l139 -31l-49 93l64 8l-19 42q77 -40 149 -40q66 0 120 33t84 93t30 132q0 97 -58 196q-102 178 -102 360q0 100 31 186q31 84 82 142q75 84 181 142q106 57 230 57q96 0 185 -35l-45 -51l26 -53l-114 -35l127 -61l-66 -42l17 -69 q-40 10 -88 10q-92 0 -140 -54q-47 -55 -47 -153q0 -95 49 -214q90 -228 90 -384q0 -236 -198 -418q-91 -83 -202 -124.5t-224 -41.5q-176 0 -306 88z" />
<glyph unicode="T" horiz-adv-x="905" d="M24 72q40 116 99 281t121.5 333t127.5 330q66 161 112 260l-228 -8l-10 59l118 61l-108 44l22 42l158 38l-98 46l-4 54q174 18 359 30t286 16t141 5l37 -51l-45 -33l80 -27l-90 -51l36 -53l-65 -54l27 -67l-236 -17q-49 -101 -109.5 -244.5t-133 -338t-139 -394 t-116.5 -374.5l-63 -17l-8 86l-45 -38l-8 90l-37 -60l-74 -53v133l-78 -84z" />
<glyph unicode="U" horiz-adv-x="1200" d="M-20 348q0 76 10 146q12 92 54 222t104 278.5t142 317t181 364.5l37 -38l-18 -122l86 80l22 -23l39 41l19 -62l77 107l15 -67l57 28q-47 -87 -82 -161.5t-67 -150.5t-50 -118q-27 -62 -63.5 -145t-78.5 -185t-68 -172t-32 -102q-12 -74 -12 -130q0 -88 50 -120 q33 -12 61 -12q46 0 81.5 34t73.5 111q61 122 121.5 265.5t120.5 299.5t123 320t105 256l80 38l-7 -118l107 137l18 -47v-84l74 76l18 -39l84 77l27 -54q-84 -176 -149.5 -322t-121.5 -282t-101 -255t-95 -262q-26 -77 -104 -196q-80 -119 -128 -158q-206 -170 -388 -170 q-98 0 -234 49q-188 68 -188 348z" />
<glyph unicode="V" horiz-adv-x="1073" d="M86 -2q2 156 19.5 364.5t47 439t68.5 445.5t86 399l51 34l23 -101l43 45l14 -78l33 43l49 59l-2 -170l106 130l28 -66q-38 -82 -120 -393q-18 -73 -29 -130t-18.5 -111t-12.5 -104q-6 -50 -11 -100h4q38 56 72.5 120t84.5 138q52 78 129.5 193t117 171.5t105.5 145 t124 158.5l24 -24l50 22l-8 -86l50 29l-8 -86l117 109l19 -66l63 14q-167 -220 -304 -416t-258 -390t-224 -383t-213 -417l-23 31l6 121l-90 -125l-33 63l-51 -38l-23 76l-82 -103z" />
<glyph unicode="W" horiz-adv-x="1802" d="M110 -2q2 156 20 367t47 436.5t69 445t86 399.5l36 23l28 -88l40 39l14 -90l46 59l42 53l9 -166l94 128l35 -62q-38 -82 -108 -376q-19 -82 -28 -137t-15.5 -131t-10.5 -118h4q62 112 169 262t143 205q29 44 79.5 115t121.5 169.5t95 133.5l14 -63l56 26v-55l49 43l49 30 l-28 -134l67 65l55 29l21 -64q-28 -57 -63.5 -183.5t-55.5 -218.5q-47 -216 -53 -394l4 -2q3 6 58 106t85 152t69.5 113t92.5 132q23 36 94.5 135.5t198.5 255.5l25 -28l49 22l-7 -90l64 29l-6 -91l117 114l12 -64l69 12q-161 -212 -299.5 -410t-259.5 -392t-226 -385 t-216 -419l-23 27l13 141l-101 -139l-26 63l-53 -40l-17 80l-82 -103l-30 33q2 92 7.5 183t15 198t22.5 215t33 242h-6q-93 -144 -165.5 -273t-147 -277t-171.5 -350l-20 23l-10 92l-68 -73l-29 120l-84 -139l-25 78l-57 -72z" />
<glyph unicode="X" horiz-adv-x="1276" d="M-148 28q63 94 152.5 228t150.5 220t138 187t168 211q-16 64 -37.5 135t-49.5 155t-47 152t-38 152l25 33l96 -127l6 100l32 -4l8 54l54 -46l-10 136l59 -50l43 58q58 -256 150 -467q130 148 267 280t245 226l46 6l-20 -71l154 75l-22 -82l48 15l-20 -68l110 49l68 19 l-4 -56q-94 -72 -211 -179t-255 -242t-292 -289q13 -34 48 -128t97 -279q61 -185 121 -380l-61 -4l-59 61l-8 -112l-19 -41l-73 92l-2 -77l-60 30l-37 -56l-215 578q-57 -56 -180.5 -213.5t-251.5 -398.5l-26 26l-66 -22l22 86l-36 -14l6 74l-142 -90l4 50z" />
<glyph unicode="Y" horiz-adv-x="987" d="M-51 60q26 32 88.5 114.5t167.5 232t209 316.5q-6 20 -22 82.5t-38 174.5t-43 255t-37 325l38 27l60 -86l30 84l32 49l54 -102l38 78l37 -41l35 31q6 -121 31 -276q25 -154 47 -226q19 29 62.5 99.5t102.5 183.5t95 211l39 -17l53 35l14 -68l42 33l8 -78l116 129l19 -49 l81 33q-96 -228 -228 -469t-274.5 -459t-286 -408.5t-263.5 -324.5l-22 41l22 120l-90 -67l-4 31l-60 -35v63l-100 -94v54z" />
<glyph unicode="Z" horiz-adv-x="1024" d="M-129 123l54 63t120.5 143.5t193.5 238.5t277 354q139 183 289 411q-6 0 -20.5 1.5t-49.5 1.5q-138 0 -303 -26l78 78l-82 19l10 43l-45 43l143 35l-71 34l-19 60q125 18 243 28t214.5 14t188.5 3q49 0 80.5 -0.5t41.5 -1.5l-34 -55l82 -4l-17 -56l74 -6 q-96 -178 -202.5 -349t-215.5 -323t-225 -296t-236 -279q16 -4 88 -4q112 0 220 12l-46 -47l36 -12l-48 -48l88 -20l-94 -45l24 -39l120 -28l-54 -62q-158 -45 -372 -45q-136 0 -255 14t-167 23l10 86l-82 -18l14 52z" />
<glyph unicode="[" horiz-adv-x="946" d="M-78 -4q41 150 123 381t176.5 467t180.5 428q86 193 136 270l93 16l-35 60l-18 62q182 36 358 36q50 0 82 -2t43 -4l-25 -53l86 -61l-82 -32l35 -52l-27 -36q-67 -4 -118.5 -12.5t-73.5 -13.5q-16 -39 -83 -177.5t-125 -265.5t-99 -233q-16 -44 -56.5 -151.5t-71.5 -193 t-64 -177.5t-41 -117q14 -4 46 -4q38 0 78 5.5t60 9.5l-31 -62l71 -18l-24 -31l-68 -45l117 -23l-53 -61q-118 -31 -258 -31q-72 1 -266 21q6 22 13 44t11 34q-14 6 -40 14t-50 8z" />
<glyph unicode="\" horiz-adv-x="1009" d="M242 1667l47 47l41 -57l26 47l56 -78l2 72l32 78l50 -84l18 84l82 -33q20 -161 58.5 -390t86 -476t101.5 -486t106 -419l-24 -46l-54 58l-16 -150l-62 76l-32 -80l-41 56l-27 -84l-22 -54l-48 35q-40 120 -91 340.5t-107 502t-104 556t-78 485.5z" />
<glyph unicode="]" horiz-adv-x="870" d="M-123 -2l82 30l-37 52l29 36q67 4 119 13t74 15q18 46 70 188t89 241t99 261q40 106 137.5 322t144.5 300q-14 4 -49 4q-38 0 -78.5 -5t-58.5 -9l32 62l-74 18l26 30l69 48l-119 20l56 64q118 30 254 30q102 0 268 -22q-4 -20 -12 -43t-13 -35q16 -12 47 -30.5t54 -18.5 q-84 -170 -177 -378.5t-181 -423t-159.5 -406t-107.5 -310.5l-93 -16l36 -61l18 -60q-190 -39 -354 -39q-52 0 -85 3.5t-45 5.5l25 52z" />
<glyph unicode="a" horiz-adv-x="993" d="M-174 20q48 104 128 258t180.5 327t208.5 338q107 165 199 275l46 -94l84 56l30 -150l136 162l61 -62l103 62q-43 -282 -83.5 -638t-40.5 -544l-75 46l-47 -44l-60 121l-59 -139l-41 62l-78 -62l27 176h-248l-99 -186l-52 63l-42 -39l-16 129l-108 -139l-15 70zM414 438 h139l63 348h-4q-144 -222 -198 -348z" />
<glyph unicode="b" horiz-adv-x="1128" d="M-10 142q24 100 73.5 263.5t114 338.5t131.5 313l59 -72l88 45l-28 108l74 5l-4 65q186 22 348 23q114 0 186 -45t105 -113.5t33 -140.5q0 -54 -17 -96q-22 -60 -74.5 -125t-118.5 -105q46 -46 74.5 -106.5t28.5 -116.5q0 -26 -6 -47q-34 -116 -99.5 -185t-151.5 -103 t-149.5 -43t-230.5 -25q-22 -2 -68 -2q-142 0 -286 32l74 74l-72 8l-12 70zM393 286l99 -4q136 0 184 109q4 7 4 21q0 39 -66 65q-28 -4 -74 -10.5t-81 -10.5zM557 733q97 0 153 25q40 18 62 50t22 64q0 48 -42 58q-80 0 -119 -14q-35 -56 -76 -183z" />
<glyph unicode="c" horiz-adv-x="776" d="M-6 381q0 110 27 227.5t78 221.5q51 106 118 178q222 239 441 239h2q140 0 262 -104l-66 -25l24 -94l-132 49l38 -109l-67 -2l-2 -78q-40 28 -82 28q-59 0 -117 -44t-88 -102q-42 -77 -71 -166.5t-29 -167.5q0 -36 10 -80q16 -53 76 -53h2q54 0 168 43l-44 -80l74 -14 l-108 -76l108 -20l-34 -44l53 -55q-148 -92 -297 -92q-98 0 -175 43t-118 125q-51 102 -51 252z" />
<glyph unicode="d" horiz-adv-x="1040" d="M-47 144q18 113 63 273.5t110.5 333.5t137.5 310l54 -45l52 26v90h72l-18 80q78 16 332 17q104 -3 171 -52.5t98.5 -134t31.5 -196.5v-6q0 -150 -53 -322q-51 -170 -143.5 -286.5t-204 -174t-224.5 -59.5q-318 0 -389 20l69 80h-61l-18 64zM340 322q59 0 89 -2t38 -2 q65 0 132.5 85t102.5 203q24 82 25 152q0 58 -18 92q-17 34 -51 34q-72 0 -118 -2q-40 -76 -81 -184t-71 -206t-48 -170z" />
<glyph unicode="e" horiz-adv-x="872" d="M-26 158q64 382 302 858l44 -43l71 45l-31 96l88 8l-26 54q138 20 346 20q115 0 262 -8l-66 -54l76 -61l-174 -29l105 -59l-78 -37l33 -74q-48 8 -134 8q-110 0 -224 -14l-80 -141l298 2l23 -45l-94 -56l83 -52l-69 -46l51 -44l-24 -46l-360 4l-48 -168q67 -12 162 -12 q98 0 213 12l-71 -96l46 -28l-116 -50l124 -34l-38 -66q-103 -26 -281 -26q-194 0 -305 22l66 94l-74 29l8 86z" />
<glyph unicode="f" horiz-adv-x="964" d="M-43 -26q22 122 82 314.5t136 391.5q77 199 143 340l86 -45l-11 49l63 8l-60 74l88 8l-28 54h664l-66 -60l70 -49l-156 -25l86 -55l-83 -45l55 -39l-39 -45h-373l-65 -144l323 2l15 -48l-125 -50l98 -49l-70 -51l46 -43l-17 -51l-360 -2q-32 -86 -55.5 -164t-49.5 -178 q-24 -101 -30 -119l-46 35l-6 118l-88 -128l-32 34l-74 -49l-16 99z" />
<glyph unicode="g" horiz-adv-x="1054" d="M37 404q0 126 39 241q34 107 94 202t136 170.5t162 128t173 74.5q86 24 178 25q110 0 187.5 -39t105.5 -96l-58 -20l7 -76l-139 34l74 -130h-64v-64q-68 86 -160 86q-16 0 -62 -4q-66 -8 -136 -86t-118 -180q-79 -176 -79 -248q0 -49 25 -74q28 -28 75 -28q51 0 100 36 t81 109l-101 21l41 54l-35 40l133 40l-126 52l36 30h420l-30 -82q10 -2 32 -6t45 -4q-69 -250 -195 -420q-156 -208 -444 -208q-44 0 -96 6q-100 10 -167.5 67.5t-100.5 149t-33 199.5z" />
<glyph unicode="h" horiz-adv-x="1126" d="M-58 6q28 106 82 274t115 335t131 336t130 288l32 -75l90 79v-125l146 195l16 -145l72 36q-58 -108 -123.5 -250t-87.5 -219l195 17q36 105 93 234.5t107 231.5l41 -59l73 84l-4 -178l111 133l33 -70l84 86l8 -16q-62 -139 -124.5 -291.5t-128 -327.5t-115.5 -331 t-76 -268l-46 46l-6 101l-88 -164l-34 35l-10 100l-70 -131l-23 93l-83 -56q86 302 140 442l-194 -16q-32 -68 -55 -142t-49 -171t-35 -125l-51 -14v124l-64 -76v156l-104 -180l-35 66z" />
<glyph unicode="i" horiz-adv-x="575" d="M-88 -14q50 176 103.5 339t111 320t118.5 302t119 263l29 -72l119 136l14 -144l86 64l27 -64l86 54q-67 -146 -164 -385t-184 -476.5t-127 -375.5l-41 55l-57 -32l2 167l-94 -135l-48 64z" />
<glyph unicode="j" horiz-adv-x="758" d="M-49 80l92 26l-39 52l125 34l-107 54l38 32l-23 46q86 -10 143 -10q122 0 138 42q60 178 107 316t99 284q52 147 90 240l33 -47l74 84l10 -174l95 102l26 -27l72 44q-70 -154 -156 -402t-158 -492q-30 -100 -71 -161t-95 -90t-120 -33q-55 -4 -148 -4q-114 0 -204 12 l36 35z" />
<glyph unicode="k" horiz-adv-x="987" d="M-64 14q28 106 78.5 261t112 325t126.5 330t117 272l42 -43l80 84l-15 -195l95 140l30 -60l60 60l40 -35l-139 -327l342 392l31 -65l94 55l-28 -139l149 115l15 -50l100 60v-64l-537 -602l127 -491l-39 2l-63 84l-16 -115l-60 31l-35 -84l-71 55l-54 -47l-122 424 l-138 -409l-30 69l-54 -31v150l-125 -168l-19 92z" />
<glyph unicode="l" horiz-adv-x="782" d="M-96 168q56 184 175 468t257 576l36 -59l105 121l5 -148l81 101l25 -66l88 41q-148 -326 -238 -538t-126 -367h360l45 -55l-164 -50l94 -44l-41 -50l76 -45l-43 -55h-621l76 94l-66 14l11 111l-105 -65z" />
<glyph unicode="m" horiz-adv-x="1288" d="M-108 -33q42 166 112 390t147.5 443.5t141.5 377.5l45 -66l60 84l38 -182l50 154l26 -46l62 56q9 -115 30.5 -283.5t38.5 -238.5q79 117 207 274t230 266l34 -66l80 88l10 -145l84 95l27 -46l88 37q-49 -110 -104 -261.5t-106 -316.5t-94.5 -324t-72.5 -290l-55 41 l-61 -90l-30 115l-69 -55l-8 104l-82 -94l-27 -12l111 411h-7q-44 -48 -83 -99.5t-104 -142.5t-93 -125l-41 58l-61 -48q-38 196 -48 340h-6q-42 -96 -147 -403l-35 55l-72 -73l-20 149l-74 -122l-18 46z" />
<glyph unicode="n" horiz-adv-x="1077" d="M-80 6q34 144 112.5 368t170 449t167.5 393l40 -55l40 45l50 -112l42 160l40 -70l32 40l56 -536h4q13 46 39 115t49.5 124t72.5 167q49 110 54 122l51 -36l62 34l2 -132l102 140l16 -65l54 47l38 -34q-56 -109 -119.5 -259.5t-126 -319t-113.5 -322t-81 -263.5l-39 35 l-41 -61l-40 76l-40 -44l-32 80l-40 -104l-28 -18l-118 421l-5 2q-28 -48 -57.5 -117.5t-67.5 -173.5t-38 -106l-40 55l-65 -29l-4 111l-111 -159l-24 73z" />
<glyph unicode="o" horiz-adv-x="971" d="M0 368q0 138 56 290q61 164 132.5 277t150.5 180t166 96.5t187 29.5l-26 -61l42 -25l-61 -53l141 -62v88l62 -26l8 96q138 -126 138 -352q0 -135 -48 -283q-40 -125 -92 -225.5t-123.5 -177t-168.5 -119.5t-218 -43q-20 0 -66 4q-90 8 -153.5 57t-94.5 129 q-32 80 -32 180zM320 422q0 -102 57 -117q77 0 144.5 73.5t109.5 207.5q49 158 49 244q0 92 -49 98q-64 0 -129.5 -64.5t-114.5 -171.5q-67 -144 -67 -270z" />
<glyph unicode="p" horiz-adv-x="1048" d="M-116 -24q28 104 68.5 239t92 288.5t103.5 287t98 223.5l61 -62l80 54l-10 88h79l-26 72q48 8 94 15.5t99 13t104 5.5q7 0 23 -1t24 -1q157 -8 244.5 -86t87.5 -202q0 -60 -20 -122q-28 -87 -92 -171.5t-162 -155.5t-216 -107q-48 -17 -135.5 -45.5t-140.5 -40.5 q-20 -42 -40 -99.5t-43 -133t-29 -95.5l-54 70l-76 -82l-14 98l-70 -48l-14 110l-86 -121zM471 643q64 11 97.5 22t72.5 35q48 30 72.5 65t24.5 63q0 38 -44 38q-20 -2 -61 -8q-41 -4 -76 -16z" />
<glyph unicode="q" horiz-adv-x="983" d="M18 368q0 138 56 290q80 214 178.5 343.5t212 184.5t245.5 55l-26 -61l43 -25l-61 -53l141 -62v88l61 -26l8 96q58 -26 98 -118.5t40 -223.5q0 -136 -48 -286q-89 -280 -243 -430l88 -232l-63 6l-21 -72l-105 115l-10 -115l-70 46l-20 -50l-49 6l-73 156q-66 0 -101 2 q-90 8 -153.5 57t-95.5 129t-32 180zM334 408q0 -102 62 -103q150 6 239 283q55 173 55 260q0 77 -41 80q-131 0 -243 -236q-32 -64 -52 -142t-20 -142z" />
<glyph unicode="r" horiz-adv-x="1054" d="M-72 24q20 97 57 227t84 278t94.5 275.5t94.5 231.5l60 -63l20 61l58 -2l-11 88l53 14l-4 60q59 13 156.5 24t177.5 11q102 -2 182 -46.5t124 -120.5t44 -169q0 -76 -30 -155q-40 -105 -143 -202t-205 -143l159 -383l-92 37l-11 -105l-110 140l-14 -108l-84 59l-27 -76 l-161 357l-25 -7q-20 -45 -37 -96t-34 -111t-42 -147l-59 69l-80 -108l-27 123l-47 -35l-14 114l-76 -130zM477 645h3q93 0 176 59q75 53 75 120q0 31 -21 50q-6 2 -22.5 6t-38.5 4q-45 0 -81 -20z" />
<glyph unicode="s" horiz-adv-x="907" d="M-24 168l71 26l-17 62l110 -39l-62 127l72 -18l18 80q144 -130 202 -130q36 0 68 48q18 28 18 57q0 48 -47 109.5t-149 150.5q-82 75 -82 199q0 105 54 203q54 99 130 135q160 76 283 76q166 0 340 -122l-53 -32l4 -62l-115 27l84 -141l-63 -4l28 -74l-34 -10 q-90 88 -164 88q-32 0 -64 -16q-54 -28 -53 -76q0 -62 92 -136q80 -66 124 -159t44 -187q-1 -70 -21 -124q-27 -72 -79.5 -127t-119.5 -89t-143 -49q-54 -8 -80 -8q-220 0 -396 215z" />
<glyph unicode="t" horiz-adv-x="913" d="M43 830l61 69l-42 45l114 43l-34 61l126 32l-124 54l14 48h940l-54 -70l101 -47l-160 -65l80 -66l-63 -50l24 -54h-316q-78 -158 -145 -359t-153 -483l-50 45l-82 -89l-30 126l-66 -58l-28 58l-82 -82l-25 22q26 80 66.5 206.5t69 213.5t66.5 192.5t81 207.5h-289z" />
<glyph unicode="u" horiz-adv-x="1024" d="M-47 182q30 198 136 503t208 509l51 14l14 -174l90 130l32 -46l77 96l7 -86l84 33q-66 -126 -132 -271.5t-121 -298.5t-73 -265q12 -32 76 -33q32 0 60 9.5t34 25.5q27 64 94.5 238t97 249t74.5 179q44 106 84 182l24 -23l21 -69l73 82l2 -152l99 156l35 -62l70 49 q-46 -99 -110 -263t-130 -348.5t-98 -289.5q-44 -144 -111 -200t-183 -76q-56 -8 -132 -8q-102 0 -203 9t-150 27l43 35l-16 29l51 34l-19 50l-77 -29l4 73z" />
<glyph unicode="v" horiz-adv-x="932" d="M10 10q20 177 55.5 394.5t77.5 427.5t78 358l41 -72l66 90l32 -106l48 47l30 -95l46 99l42 37l-80 -461h4q1 -1 328 485l64 15l-25 -145l123 96l16 -56l109 80l21 -51l94 25q-80 -98 -192 -255t-237 -342t-229 -349t-152 -246l-46 72l-70 -38l-16 122l-109 -142l-25 53 l-69 -69z" />
<glyph unicode="w" horiz-adv-x="1552" d="M10 10q6 157 33 374.5t73 433t105 372.5l33 -35l45 57l17 -90l59 54l29 -111l90 127l32 -35q-24 -81 -39.5 -171t-29 -195.5t-13.5 -106.5h4q33 65 121 206q87 140 217 282l27 -74l74 53l12 -135l82 166l43 -64l72 12l-62 -434h4q66 117 107 186.5t99 151.5t136 180 l29 -63l103 82l-21 -164l141 107l12 -62l144 86l20 -34q-88 -103 -189 -235.5t-208 -289.5t-206.5 -323t-182.5 -332l-22 26v144l-113 -168l-23 98l-84 -62l-28 46l-72 -60q12 376 47 555h-4q-53 -63 -168 -216t-231 -351l-50 86l-65 -49l-17 115l-82 -115l-26 41z" />
<glyph unicode="x" horiz-adv-x="1018" d="M-182 53l494 571l-107 502l29 52l78 -138l22 144l51 -29l27 101l65 -72l55 43l66 -273l232 266l40 -59l76 25l-24 -102l147 114l13 -66l110 66v-64l-477 -542l119 -564l-19 -20l-77 96l-38 -124l-67 40l-29 -86l-55 68l-53 -47l-68 301l-250 -291l-28 55l-70 -22l10 86 l-152 -104l-22 73l-84 -51z" />
<glyph unicode="y" horiz-adv-x="895" d="M60 -10l192 540l-131 604l19 32l86 -95l18 158l78 -82l22 55l64 -41l48 45l66 -272l232 266l36 -76l76 35l-6 -100l134 119l22 -64l100 64v-64l-530 -612l-201 -541l-47 82l-45 -33l-19 102l-98 -128l-24 59z" />
<glyph unicode="z" horiz-adv-x="948" d="M-39 215q59 74 174 198t240 246.5t221 198.5q-56 14 -162 14q-51 0 -103.5 -3t-97.5 -6t-71 -5l57 66l-45 34l68 52l-35 55l123 35l-92 47l18 35q249 18 459 18q181 0 295 -18l-35 -64l65 -45l-74 -55l-44 -56l104 -4l58 -34q-502 -446 -654 -638q33 -8 129 -8 q72 0 207 6l-60 -69l64 -59l-131 -70l90 -37l-29 -47q-156 -14 -376 -14q-186 0 -277 12l-10 39l84 41l-88 34l18 78z" />
<glyph unicode="&#xa9;" horiz-adv-x="1685" d="M78 557q0 178 62 372.5t177 364.5t273 276t342 112l39 -46l-72 -57h117l45 -39l45 31l96 -13l-64 74l68 33q142 -9 209 -51q134 -86 184 -212.5t60 -311.5q2 -18 2 -56q0 -161 -47 -343.5t-135.5 -344.5t-208.5 -260q-148 -122 -278 -172.5t-259 -50.5q-91 1 -229 27 q-101 20 -178 79t-127.5 142t-78.5 174t-38 182q-4 57 -4 90zM338 572q2 -106 35 -204t98 -164t157 -81q40 -7 76 -7q210 0 402 166q50 45 100.5 124.5t91.5 179t65.5 211t24.5 215.5q-4 89 -35 187.5t-96 168.5t-163 70q-243 -6 -414.5 -136t-256.5 -327t-85 -403zM459 592 q0 93 23.5 192.5t66.5 189.5q43 88 100 150q190 206 381 207q118 0 224 -90l-58 -21l22 -82l-114 44l32 -94l-56 -2l-3 -66q-29 22 -69 22q-50 0 -100 -36q-48 -36 -76 -86q-84 -152 -84 -285q0 -40 8 -70q14 -47 68 -47q36 0 142 39l-36 -69l61 -13l-92 -63l92 -19l-29 -37 l46 -47q-122 -77 -252 -77q-178 0 -252 143q-45 86 -45 217z" />
<glyph unicode="&#xad;" d="M142 628l106 82l-90 9l16 41l74 30l-41 50q195 40 545 40l63 -42l-92 -58l98 -24l9 -44l-107 -32l65 -58l-73 -48q-152 -5 -272.5 -12t-183.5 -12.5t-81 -7.5l20 54z" />
<glyph unicode="&#xae;" horiz-adv-x="1685" d="M78 557q0 178 62 372.5t177 364.5t273 276t342 112l39 -46l-72 -57h117l45 -39l45 31l96 -13l-64 74l68 33q142 -9 209 -51q94 -60 148.5 -139t79 -170.5t30.5 -206.5q0 -8 1.5 -23t1.5 -29q0 -161 -50.5 -346t-143.5 -350.5t-212 -263.5q-148 -122 -278 -172.5 t-259 -50.5q-91 1 -229 27q-101 20 -178 79t-127.5 142t-78.5 174t-38 182q-4 57 -4 90zM338 572q4 -142 34 -222l7 2q23 104 66.5 247t94.5 285q52 140 101 246l49 -53l18 51h50l-10 74l46 12l-4 52q148 28 260 28q124 -3 196.5 -78t72.5 -192q0 -74 -31 -154 q-36 -94 -109 -172t-153 -114l92 -250l-78 30l-4 -106l-82 76l-20 -52l-64 42l-22 -66l-110 258l-21 -6q-28 -65 -38 -95t-46 -151l-51 60l-68 -78l-6 82l-33 -21l-12 99l-59 -109q78 -150 224 -174q40 -7 76 -7q210 0 402 166q52 45 106 127.5t100 185.5t74.5 216t28.5 217 q-3 59 -28 129.5t-69 133t-106 102t-139 39.5q-243 -7 -409 -135t-246 -323.5t-80 -401.5zM803 796q87 0 157 50q62 45 62 102q0 29 -20 46q-5 2 -18.5 5t-31.5 3q-40 0 -72 -19z" />
<glyph unicode="&#xf7;" horiz-adv-x="1124" d="M142 628l106 82l-90 9l16 41l74 30l-41 50q96 20 268.5 31t312 14.5t201.5 3.5l63 -43l-92 -58l99 -24l8 -43l-107 -33l66 -57l-74 -49q-250 -8 -461 -20t-313 -20l20 54zM226 66q24 134 72 253t74 173l42 -38l-14 -114l73 72l21 -23l36 41l10 -68l74 68l-4 -80l64 37 q-48 -94 -84 -196t-52 -152l-42 2l-46 -33l-20 78l-34 -41l-24 78l-65 -109l-10 62zM528 1038q20 88 65 192t71 154l40 -18l48 51l8 -71l49 34l8 -72l78 103l10 -61l78 10q-63 -132 -100 -236t-49 -149l-44 -4l-4 77l-55 -34l-21 22l-36 -40l-12 67l-74 -67l-8 58z" />
<glyph unicode="&#x2000;" />
<glyph unicode="&#x2001;" horiz-adv-x="1782" />
<glyph unicode="&#x2002;" />
<glyph unicode="&#x2003;" horiz-adv-x="1782" />
<glyph unicode="&#x2004;" horiz-adv-x="594" />
<glyph unicode="&#x2005;" horiz-adv-x="445" />
<glyph unicode="&#x2006;" horiz-adv-x="297" />
<glyph unicode="&#x2007;" horiz-adv-x="297" />
<glyph unicode="&#x2008;" horiz-adv-x="222" />
<glyph unicode="&#x2009;" horiz-adv-x="356" />
<glyph unicode="&#x200a;" horiz-adv-x="99" />
<glyph unicode="&#x2010;" d="M142 628l106 82l-90 9l16 41l74 30l-41 50q195 40 545 40l63 -42l-92 -58l98 -24l9 -44l-107 -32l65 -58l-73 -48q-152 -5 -272.5 -12t-183.5 -12.5t-81 -7.5l20 54z" />
<glyph unicode="&#x2011;" d="M142 628l106 82l-90 9l16 41l74 30l-41 50q195 40 545 40l63 -42l-92 -58l98 -24l9 -44l-107 -32l65 -58l-73 -48q-152 -5 -272.5 -12t-183.5 -12.5t-81 -7.5l20 54z" />
<glyph unicode="&#x2012;" d="M142 628l106 82l-90 9l16 41l74 30l-41 50q195 40 545 40l63 -42l-92 -58l98 -24l9 -44l-107 -32l65 -58l-73 -48q-152 -5 -272.5 -12t-183.5 -12.5t-81 -7.5l20 54z" />
<glyph unicode="&#x2013;" horiz-adv-x="1124" d="M142 628l106 82l-90 9l16 41l74 30l-41 50q96 20 268.5 31t312 14.5t201.5 3.5l63 -43l-92 -58l99 -24l8 -43l-107 -33l66 -57l-74 -49q-250 -8 -461 -20t-313 -20l20 54z" />
<glyph unicode="&#x2014;" horiz-adv-x="1425" d="M142 628l106 82l-90 9l16 41l74 30l-41 50q94 20 335.5 33.5t446 19t299.5 6.5l64 -43l-92 -58l98 -24l8 -43l-106 -33l65 -57l-73 -49q-160 -5 -420 -17.5t-418 -20.5t-236 -12l20 54z" />
<glyph unicode="&#x2018;" horiz-adv-x="612" d="M112 1581l58 76l78 -57l47 57l39 -47l57 47l-86 -422l-75 59l-50 -86l-49 48zM430 1270l58 328l65 73l41 -73l84 65l32 -65l74 32l-172 -385l-38 29l-54 -37l-24 65z" />
<glyph unicode="&#x2019;" horiz-adv-x="641" d="M176 1317l39 323l69 64l68 -70l56 50l30 -54l66 37l-160 -401l-64 72l-63 -76zM473 1278l115 314l78 60l26 -79l94 49l21 -70l77 21l-235 -351l-33 36l-59 -27l-12 67z" />
<glyph unicode="&#x201c;" horiz-adv-x="612" d="M112 1581l58 76l78 -57l47 57l39 -47l57 47l-86 -422l-75 59l-50 -86l-49 48zM430 1270l58 328l65 73l41 -73l84 65l32 -65l74 32l-172 -385l-38 29l-54 -37l-24 65z" />
<glyph unicode="&#x201d;" horiz-adv-x="641" d="M176 1317l39 323l69 64l68 -70l56 50l30 -54l66 37l-160 -401l-64 72l-63 -76zM473 1278l115 314l78 60l26 -79l94 49l21 -70l77 21l-235 -351l-33 36l-59 -27l-12 67z" />
<glyph unicode="&#x2026;" horiz-adv-x="2347" d="M-70 -26q24 132 72.5 252t75.5 174l41 -38l-13 -114l72 72l22 -23l38 41l10 -68l74 68l-4 -80l63 37q-46 -91 -82.5 -194.5t-52.5 -153.5l-43 2l-45 -33l-21 78l-35 -41l-22 77l-66 -108l-10 62zM809 -26q24 132 72.5 252t74.5 174l42 -38l-13 -114l72 72l20 -23l37 41 l12 -68l74 68l-6 -80l66 37q-48 -96 -84 -197t-52 -151l-42 2l-46 -33l-22 78l-35 -41l-21 77l-65 -108l-11 62zM1714 -26q24 132 72 252t76 174l40 -38l-12 -114l72 72l22 -23l38 41l10 -68l74 68l-5 -80l63 37q-48 -96 -84 -197q-34 -101 -50 -151l-44 2l-44 -33l-21 78 l-35 -41l-22 77l-66 -108l-10 62z" />
<glyph unicode="&#x202f;" horiz-adv-x="356" />
<glyph unicode="&#x205f;" horiz-adv-x="445" />
<glyph unicode="&#x2122;" horiz-adv-x="1575" d="M334 1424l47 54l-27 32l102 32l-88 43l36 51h562l-32 -42l62 -28l-97 -40l47 -39l-36 -29l14 -34h-191q-70 -142 -178 -504l-35 32l-74 -76l-14 90l-64 -61l-30 27q119 376 168 492h-172zM854 908q30 114 69.5 240t88 262t84.5 224l42 -40l34 77l36 -71l56 34 q6 -76 18 -170q10 -94 22 -145q108 157 262 325l40 -32l61 55l13 -73l79 24q-28 -64 -59.5 -152.5t-62.5 -187.5t-57 -195.5t-44 -174.5l-35 24l-47 -35l-22 69l-84 -84l-15 28l70 249h-4q-36 -40 -96.5 -123.5t-71.5 -95.5l-25 33l-36 -27q-20 89 -30 203h-4 q-30 -69 -88 -241l-32 26l-58 -56l-26 86z" />
<glyph unicode="&#xe000;" horiz-adv-x="1255" d="M0 0v1255h1255v-1255h-1255z" />
</font>
</defs>
</svg>
