<?xml version="1.0" encoding="utf-8"?>
<!-- Generator: Adobe Illustrator 16.0.0, SVG Export Plug-In . SVG Version: 6.00 Build 0)  -->
<!DOCTYPE svg PUBLIC "-//W3C//DTD SVG 1.1//EN" "http://www.w3.org/Graphics/SVG/1.1/DTD/svg11.dtd">
<svg version="1.1" id="Capa_1" xmlns="http://www.w3.org/2000/svg" xmlns:xlink="http://www.w3.org/1999/xlink" x="0px" y="0px"
	 width="1858px" height="654.5px" viewBox="-311.5 0 1858 654.5" enable-background="new -311.5 0 1858 654.5" xml:space="preserve"
	>
<g id="Capa_1_1_" display="none">
</g>
<g id="Capa_2">
	<g>
		<g>
			<g>
				<path d="M417.931,417.442c-0.017,0.021,39.564-2.695,39.546-2.683c-0.246-1.882-47.751-85.763-49.918-87.686
					c-3.401-3.019-5.482-7.041-5.482-7.041l-3.63-61.01c0,0,5.088-15.033,6.329-17.409c1.238-2.374,0.185-4.614,0.185-4.614
					l10.655-6.619c1.697-2.404-50.663-93.196-50.663-93.196s-0.245-4.129-4.993,1.216c-4.746,5.348-49.884,51.308-49.884,51.308
					l-0.868-6.855l-0.601-10.091c0,0,6.9-7.777,8.224-8.773c1.321-1.002,2.534-3.837,2.534-3.837l-4.21-1.13l-0.627-10.55
					l-5.506,0.329l-1.648-4.507l-4.157-0.214l-1.644-35.349l8.683-8.8l-36.908-63.177l-14.465-3.28l-13.652,41.323l-6.88,0.41
					c0,0-4.116,15.896-3.023,34.248c-3.96,10.822-4.199,14.521-4.199,14.521l6.879-0.414l4.976,13.974l-9.621,16.228l-0.371,9.227
					l-5.231,4.916l-2.861-1.673l-2.162-5.392c0,0-2.371,6.585-3.207,8.018c-0.835,1.428-5.014,8.583-6.336,9.581
					c-1.32,1-16.403,2.82-16.403,2.82s2.155-2.43,0.077-6.45c-2.08-4.021-5.619-9.333-6.028-16.214
					c-0.412-6.881-2.861-1.671-2.861-1.671s-4.281,13.145-6.926,15.143c-2.643,1.998-4.395,3.485-3.396,4.805
					c1,1.321,1.135,3.614,1.135,3.614l-8.733,15.713l-33.33-3.079c0,0-0.419,54.806-0.335,56.181
					c0.081,1.379-2.987,11.689-1.613,11.605c1.376-0.084,7.325,14.757,7.325,14.757l1.222,12.814c0,0-3.478,3.434-3.341,5.724
					c0.136,2.296,0.703,4.104,0.703,4.104c2.752-0.168,4.479-2.109,2.485,3.073c-1.991,5.185-3.368,5.268-1.398,7.451
					c0.64,0.703,1.104,0.939,1.431,1.009c-0.179,0.221,0.309,2.854,0.542,1.174c-0.231-0.735-0.381-1.066-0.471-1.157
					c0.613,0.099,0.678-0.352,0.471,1.157c1.135,3.616-4.233,6.236-4.233,6.236s-0.321,2.319-0.911,7.883
					c-0.59,5.557-3.371,5.262-0.59,5.557c2.782,0.298,6.018,0.56,6.018,0.56l3.216,7.637l0.866,14.51
					c-8.865-3.957-30.999,8.895-43.362,2.393l0.506,213.633C105.252,569.422,427.057,409.102,417.931,417.442z"/>
			</g>
		</g>
		<path d="M777.597,359.913c-160.589-3.459-263.556-1.017-333.479,4.702c-72.259-2.951-215.442-2.858-266.451-5.615
			c-74-4-490.167-11.5-490.167-11.5v333h1883V421.734C1324.5,380.5,933.818,363.278,777.597,359.913z"/>
		<g>
			<g>
				<g>
					<g>
						<g opacity="0.57">
							
								<image overflow="visible" enable-background="new    " width="88" height="95" xlink:href="C8632183.png"  transform="matrix(1.34 0 0 1.34 308.4316 143.3916)">
							</image>
						</g>
						<g>
							<polygon fill="#FFCB74" points="358.795,221.532 358.236,210.304 366.984,210.998 367.626,221.78 							"/>
							<polygon fill="#FFCB74" points="369.316,211.191 369.963,222.083 378.158,222.48 377.536,212.023 							"/>
							<path fill="#FFCB74" d="M366.924,208.129l-8.532-0.485c0,0-3.124-15.384,7.795-15.594
								C366.462,194.795,366.924,208.129,366.924,208.129z"/>
							<path fill="#FFCB74" d="M368.731,192.124l0.651,16.522l8.209,0.616C377.592,209.262,377.62,194.907,368.731,192.124z"/>
						</g>
						<path fill="#FFCB74" d="M288.165,102.487c0,0-0.309-10.679-8.388-12.426c-5.115-0.541-7.269,2.156-7.269,2.156
							s-0.344,3.618,0.164,7.646C276.407,99.792,282.994,100.712,288.165,102.487z"/>
						<polygon fill="#090909" points="278.514,89.057 279.057,100.23 280.616,100.516 280.07,89.288 						"/>
					</g>
				</g>
				<g opacity="0.57">
					
						<image overflow="visible" enable-background="new    " width="85" height="83" xlink:href="C8632186.png"  transform="matrix(1.34 0 0 1.34 222.6689 40.208)">
					</image>
				</g>
			</g>
		</g>
	</g>
	<path d="M633.62,360.443v-20.818c0,0-5.305-6.53-11.838-5.307c-6.531,0.814-8.162,6.938-8.162,6.938l0.813,20.819L633.62,360.443z"
		/>
	<polygon points="588.928,314.762 589.304,326.846 578.792,328.522 578.949,332.682 589.953,331.308 592.969,366.683 
		601.59,365.877 595.604,330.372 605.513,329.679 604.771,324.819 595.354,325.815 593.39,314.112 	"/>
	<path d="M475.922,364.328c0,0-2.305-9.246-1.638-15.431c-1.075,3.989-0.22,12.684-0.022,13.063
		c0.197,0.378-1.571-8.251-5.899-12.397c1.61,3.285,4.615,13.27,4.723,14.178c0.105,0.904-2.107-8.869-9.977-13.033
		c2.849,3.332,7.416,10.855,7.717,13.449c0.301,2.59-3.561,1.154-3.561,1.154s-2.707-6.086-3.555-9.423
		c-0.85-3.337,1.743,7.064,1.727,8.24c-0.018,1.178-3.287-5.782-5.008-8.669c-1.72-2.887,3.036,10.242,3.036,10.242
		s-7.661-10.319-7.567-10.85c0.094-0.527,5.08,10.624,5.08,10.624s-3.484-6.158-11.4-9.406c-2.869-0.853-5.71-0.137-5.71-0.137
		s8.581-0.321,12.766,6.574c1.313,2.002,1.78,3.406,1.78,3.406s-4.021-5.474-11.574-6.916c1.967,1.041,6.225,3.231,8.156,6.627
		c-6.943-1.486-13.928-4.667-15.706-9.378c1.885,4.313,2.646,5.569,8.09,8.721c-5.021-0.833-8.845-4.619-8.845-4.619l3.013,4.759
		l-5.927-5.994l2.86,6.074c0,0-4.313-5.324-4.101-4.815c0.213,0.507,2.355,5.717,2.355,5.717s-4.201-5.723-4.127-5.074
		c0.073,0.649,1.916,4.57,1.916,4.57l3.702,2.752l37.464-0.727L475.922,364.328z"/>
	<g>
		<path d="M510.208,361.63c0,0,3.628-12.132,3.401-18.594c0.565,5.101-1.476,19.386-1.476,19.386s4.907-12.528,5.688-15.957
			c-0.923,7.114-3.871,15.165-4.438,15.957c-0.565,0.795,5.668-11.109,9.296-13.943c-2.268,4.648-7.142,12.584-8.164,14.966
			c-1.02,2.382-4.308,1.248-4.308,1.248L510.208,361.63L510.208,361.63z"/>
		<path d="M599.87,358.738c0,0,2.684-8.979,2.517-13.761c0.419,3.775-1.091,14.348-1.091,14.348s3.631-9.271,4.207-11.811
			c-0.684,5.268-2.865,11.224-3.283,11.811c-0.421,0.586,4.193-8.222,6.878-10.318c-1.68,3.439-5.284,9.313-6.04,11.074
			c-0.755,1.762-3.188,0.923-3.188,0.923V358.738z"/>
		<path d="M588.167,362.485c0,0-1.586-6.73-3.454-9.729c1.657,2.261,4.583,9.578,4.583,9.578s-1.09-7.268-1.657-9.104
			c1.501,3.619,2.302,8.231,2.248,8.763c-0.053,0.531-0.343-6.802,0.604-9.131c0.19,2.814,0.047,7.899,0.213,9.306
			c0.165,1.406-1.7,1.765-1.7,1.765L588.167,362.485z"/>
		<path d="M775.185,365.25c0,0,2.687-8.976,2.519-13.758c0.42,3.773-1.091,14.346-1.091,14.346s3.631-9.271,4.206-11.809
			c-0.684,5.265-2.863,11.221-3.282,11.809c-0.42,0.587,4.193-8.222,6.879-10.319c-1.679,3.439-5.285,9.313-6.042,11.074
			c-0.754,1.764-3.188,0.923-3.188,0.923V365.25L775.185,365.25z"/>
		<path d="M526.531,361.036c0,0,1.491-8.076,0.855-13.465c0.889,3.474,0.454,11.059,0.316,11.39
			c-0.138,0.332,0.974-7.204,4.077-10.845c-1.116,2.874-3.108,11.597-3.165,12.388c-0.059,0.791,1.354-7.744,7.075-11.424
			c-2.029,2.922-5.232,9.512-5.396,11.773c-0.163,2.261,2.657,0.983,2.657,0.983s1.861-5.321,2.412-8.236
			c0.552-2.913-1.126,6.172-1.086,7.196c0.04,1.025,2.297-5.063,3.501-7.591c1.206-2.527-2.008,8.948-2.008,8.948
			s5.426-9.043,5.345-9.504c-0.08-0.46-3.511,9.296-3.511,9.296s2.435-5.395,8.211-8.274c2.101-0.759,4.217-0.148,4.217-0.148
			s-6.351-0.231-9.285,5.809c-0.922,1.753-1.238,2.98-1.238,2.98s2.848-4.798,8.396-6.103c-1.432,0.92-4.524,2.855-5.875,5.828
			c5.097-1.338,10.188-4.152,11.394-8.272c-1.294,3.771-1.828,4.869-5.78,7.653c3.692-0.757,6.434-4.082,6.434-4.082l-2.119,4.166
			l4.244-5.265l-1.977,5.313c0,0,3.064-4.666,2.92-4.224c-0.146,0.444-1.609,5.001-1.609,5.001s2.975-5.015,2.934-4.449
			c-0.041,0.564-1.311,3.997-1.311,3.997l-2.675,2.421l-27.704-0.405L526.531,361.036z"/>
		<path d="M712.359,361.14c0,0,2.521-10.731,2.017-18c0.964,4.717-0.104,14.857-0.31,15.293c-0.206,0.438,1.77-9.598,6.167-14.278
			c-1.685,3.781-4.917,15.35-5.045,16.406c-0.127,1.059,2.313-10.299,10.224-14.863c-2.91,3.788-7.629,12.419-7.993,15.438
			c-0.363,3.023,3.499,1.495,3.499,1.495s2.839-7.017,3.768-10.891c0.927-3.873-1.907,8.201-1.923,9.58
			c-0.011,1.378,3.407-6.643,5.187-9.953c1.779-3.313-3.271,11.87-3.271,11.87s7.857-11.776,7.778-12.399
			c-0.078-0.623-5.307,12.236-5.307,12.236s3.61-7.074,11.542-10.565c2.867-0.881,5.666,0.069,5.666,0.069
			s-8.499-0.717-12.825,7.191c-1.349,2.29-1.854,3.914-1.854,3.914s4.125-6.246,11.652-7.639c-1.977,1.142-6.252,3.538-8.255,7.438
			c6.923-1.467,13.929-4.913,15.81-10.358c-1.977,4.975-2.763,6.413-8.239,9.891c5-0.776,8.889-5.061,8.889-5.061l-3.11,5.45
			l6.029-6.785l-2.988,6.999c0,0,4.408-6.063,4.187-5.477c-0.226,0.586-2.48,6.6-2.48,6.6s4.313-6.53,4.223-5.775
			c-0.093,0.755-2.017,5.276-2.017,5.276l-3.742,3.074l-37.125-2.326L712.359,361.14z"/>
	</g>
	<g>
		<path d="M677.044,337.492c0,0,0,0-4.729-0.063c-1.188-5.557-5.649-7.364-5.649-7.364l0.407-10.647l-4.588-0.291l-2.329,0.943
			l-0.863,9.163c-3.325,0.631-5.287,3.882-5.287,3.882l-3.711,0.093l-3.873,1.898l-1.056,6.34c0,0,0.92,0.566,6.524,1.011
			c-0.018,4.914,4.816,7.896,4.816,7.896l0.064,9.416c0,0,0.725,1.399,1.6,1.78c0.874,0.384,1.327,1.457,1.884,1.324
			c0.561-0.132,4.716-2.491,4.716-2.491s-0.179-4.082-0.073-8.625c3.979-3.104,4.525-5.786,4.525-5.786l7.455,0.792l1.608-2.347
			c0,0-0.334-3.063,0.146-4.355C679.114,338.771,677.044,337.492,677.044,337.492z M660.109,347.469
			c-1.923,0.658-4.928-3.699-4.392-5.423l0.226,0.021C655.992,342.271,661.01,343.133,660.109,347.469z M660.43,335.704
			c-1.393,1.105-3.136,0.682-4.105,0.216c0,0,0.958-3.616,4.771-4.081C661.094,331.839,661.458,334.519,660.43,335.704z
			 M664.188,347.97c-0.049-0.209-0.371-4.771,3.354-4.616C667.797,346.111,664.188,347.97,664.188,347.97z M669.442,338.556
			c0,0-1.303,0.249-3.217-1.382c-1.36-1.161-0.962-4.882-0.962-4.882S669.654,332.809,669.442,338.556z"/>
		<path d="M659.83,329.202l0.549-8.896l2.186-0.691l-0.373,9.479C662.189,329.094,660.147,329.043,659.83,329.202z"/>
		<polygon points="650.377,333.48 649.148,341.882 645.811,341.293 646.655,335.295 		"/>
		<path d="M677.071,337.77l-4.653-0.134l0.11,0.938l5.869,0.909C678.397,339.48,677.988,338.339,677.071,337.77z"/>
		<path d="M656.709,350.354c0,0,2.539,0.928,2.777,1.008c0.235,0.079-0.113,2.548-0.113,2.548l-2.498-1.206L656.709,350.354z"/>
	</g>
</g>
</svg>
